<mxfile host="app.diagrams.net" modified="2023-05-25T23:21:26.162Z" agent="5.0 (Windows)" etag="KVtKf6cl7UctUCgpKufx" version="21.0.2" type="github">
  <diagram id="C5RBs43oDa-KdzZeNtuy" name="Page-1">
    <mxGraphModel dx="2074" dy="1114" grid="1" gridSize="10" guides="1" tooltips="1" connect="1" arrows="1" fold="1" page="1" pageScale="1" pageWidth="827" pageHeight="1169" math="0" shadow="0">
      <root>
        <mxCell id="WIyWlLk6GJQsqaUBKTNV-0" />
        <mxCell id="WIyWlLk6GJQsqaUBKTNV-1" parent="WIyWlLk6GJQsqaUBKTNV-0" />
        <mxCell id="EN_J2SsIbc7_pDlF_bES-2" style="edgeStyle=orthogonalEdgeStyle;rounded=0;orthogonalLoop=1;jettySize=auto;html=1;exitX=0.5;exitY=0;exitDx=0;exitDy=0;entryX=0.5;entryY=1;entryDx=0;entryDy=0;" edge="1" parent="WIyWlLk6GJQsqaUBKTNV-1" source="EN_J2SsIbc7_pDlF_bES-0" target="EN_J2SsIbc7_pDlF_bES-1">
          <mxGeometry relative="1" as="geometry" />
        </mxCell>
        <mxCell id="EN_J2SsIbc7_pDlF_bES-0" value="&lt;font style=&quot;font-size: 24px;&quot;&gt;Start&lt;/font&gt;" style="whiteSpace=wrap;html=1;aspect=fixed;" vertex="1" parent="WIyWlLk6GJQsqaUBKTNV-1">
          <mxGeometry x="360" y="990" width="80" height="80" as="geometry" />
        </mxCell>
        <mxCell id="EN_J2SsIbc7_pDlF_bES-4" style="edgeStyle=orthogonalEdgeStyle;rounded=0;orthogonalLoop=1;jettySize=auto;html=1;exitX=0.5;exitY=0;exitDx=0;exitDy=0;entryX=1;entryY=0.5;entryDx=0;entryDy=0;" edge="1" parent="WIyWlLk6GJQsqaUBKTNV-1" source="EN_J2SsIbc7_pDlF_bES-1" target="EN_J2SsIbc7_pDlF_bES-3">
          <mxGeometry relative="1" as="geometry" />
        </mxCell>
        <mxCell id="EN_J2SsIbc7_pDlF_bES-1" value="1&lt;br&gt;First room&lt;br&gt;Building tension" style="ellipse;whiteSpace=wrap;html=1;" vertex="1" parent="WIyWlLk6GJQsqaUBKTNV-1">
          <mxGeometry x="340" y="810" width="120" height="80" as="geometry" />
        </mxCell>
        <mxCell id="EN_J2SsIbc7_pDlF_bES-3" value="2&lt;br&gt;Enemy confrontation&amp;nbsp; " style="rhombus;whiteSpace=wrap;html=1;" vertex="1" parent="WIyWlLk6GJQsqaUBKTNV-1">
          <mxGeometry x="90" y="610" width="160" height="160" as="geometry" />
        </mxCell>
      </root>
    </mxGraphModel>
  </diagram>
</mxfile>
